<?xml version="1.0" encoding="iso-8859-1"?>
<!-- Generator: Adobe Illustrator 24.1.2, SVG Export Plug-In . SVG Version: 6.00 Build 0)  -->
<svg version="1.1" xmlns="http://www.w3.org/2000/svg" xmlns:xlink="http://www.w3.org/1999/xlink" x="0px" y="0px"
	 viewBox="0 0 48 48" style="enable-background:new 0 0 48 48;" xml:space="preserve">
<g id="Layer_10">
	<g style="display:none;opacity:0.05;">
		<g style="display:inline;">
			<circle style="fill:#FFFFFF;" cx="24" cy="24" r="19.5"/>
			<path d="M24,5c10.477,0,19,8.523,19,19s-8.523,19-19,19S5,34.477,5,24S13.523,5,24,5 M24,4C12.954,4,4,12.954,4,24
				s8.954,20,20,20s20-8.954,20-20S35.046,4,24,4L24,4z"/>
		</g>
		<g style="display:inline;">
			<rect x="6.5" y="6.5" style="fill:#FFFFFF;" width="35" height="35"/>
			<path d="M41,7v34H7V7H41 M42,6H6v36h36V6L42,6z"/>
		</g>
	</g>
</g>
<g id="filled">
</g>
<g id="outlined">
</g>
<g id="rounded">
</g>
<g id="two_x5F_tone">
</g>
<g id="sharp">
</g>
<g id="win10">
</g>
<g id="ios_x5F_out">
</g>
<g id="ios_x5F_filled">
</g>
<g id="color">
	<path style="fill:#1B5E20;" d="M10.185,3.56C9.516,3.18,8.983,3,8.209,3C6.884,3,6,3.875,6,5.406v37.188
		C6,44.125,6.884,45,8.209,45c0.773,0,1.307-0.18,1.976-0.56l22.123-12.474L35,28l4.418-0.043l2.98-1.68
		C43.287,25.773,44,25.094,44,24s-0.713-1.775-1.603-2.279L10.185,3.56z"/>
	<rect x="18" y="26" style="fill:#43A047;" width="13" height="3"/>
	<path style="fill:#43A047;" d="M39.42,27.96l-7.11,4.01L27.56,27H19.6c-4.15,0-7.5-3.36-7.5-7.5c0-2.07,0.84-3.94,2.19-5.3
		c1.36-1.36,3.23-2.2,5.31-2.2h11.12c3.4,0,6.31,2.44,6.9,5.78L39.42,27.96z"/>
	<path style="fill:#00E676;" d="M14.959,33.883L21.539,27H30.5c4.142,0,7.5-3.358,7.5-7.5v0c0-4.142-3.358-7.5-7.5-7.5H18.372
		c-3.396,0-6.302,2.438-6.893,5.782l-2.325,13.16C8.568,34.255,12.635,36.314,14.959,33.883z"/>
	<rect x="15" y="18.5" style="fill:#F1F8E9;" width="7" height="2"/>
	<rect x="15" y="18.5" transform="matrix(-1.836970e-16 1 -1 -1.836970e-16 38 1)" style="fill:#F1F8E9;" width="7" height="2"/>
	<circle style="fill:#F1F8E9;" cx="28.25" cy="19.5" r="1.25"/>
	<circle style="fill:#F1F8E9;" cx="33.25" cy="19.5" r="1.25"/>
	<circle style="fill:#F1F8E9;" cx="30.75" cy="17" r="1.25"/>
	<circle style="fill:#F1F8E9;" cx="30.75" cy="22" r="1.25"/>
</g>
</svg>